<?xml version="1.0" encoding="UTF-8"?>
<svg width="145px" height="140px" viewBox="0 0 145 140" version="1.1" xmlns="http://www.w3.org/2000/svg" xmlns:xlink="http://www.w3.org/1999/xlink">
    <!-- Generator: Sketch 63.1 (92452) - https://sketch.com -->
    <title>Bitmap</title>
    <desc>Created with Sketch.</desc>
    <g id="Page-1" stroke="none" stroke-width="1" fill="none" fill-rule="evenodd">
        <g id="Bitmap" transform="translate(0.000000, -0.500000)" fill="#FFFFFF">
            <path d="M69.125,58.5 C68.675,58.5 67.987,46.013 67.596,30.75 C67.205,15.487 66.499,2.61 66.026,2.133 C64.823,0.92 52.472,3.215 48.102,5.463 C46.121,6.483 43.284,8.597 41.799,10.162 C37.153,15.056 31.961,27.903 29.153,41.451 C27.229,50.739 25.709,55.402 23.304,59.395 C17.987,68.225 2.295,99.672 0.97,104.154 C-0.834,110.251 0.377,114.642 5.187,119.452 C7.459,121.724 9.64,123.226 10.034,122.791 C10.429,122.356 12.219,117.5 14.013,112 C17.895,100.097 24.109,84.192 27.46,77.578 C30.202,72.168 35.761,66.849 39.709,65.858 C44.111,64.753 51.025,67.243 59.5,72.984 C72.539,81.818 73.514,81.877 83.571,74.447 C90.35,69.44 98.553,65.523 102.29,65.51 C106.563,65.495 112.724,69.125 115.461,73.27 C118.786,78.306 125.765,95.219 130.93,110.757 L135.171,123.515 L138.184,121.369 C142.526,118.277 144.992,113.687 144.996008,108.687 C144.999,105.349 143.321,100.943 137.571,89.187 C133.485,80.834 127.612,69.5 124.519,64 C120.075,56.098 118.489,52.047 116.958,44.688 C111.949,20.618 106.307,9.721 96.426,5.032 C92.402,3.122 80.195,0.972 79.173,1.993 C78.803,2.363 78.172,14.441 77.772,28.833 C76.756,65.358 76.346,65.847 76.16,30.75 L76,0.5 L72.363,0.5 L68.727,0.5 L69.335,29.5 C69.669,45.45 69.575,58.5 69.125,58.5 Z M38.435,55.058 C34.051,57.221 28.672,61.853 24.845,66.76 C21.384,71.198 23.032,70.347 28.987,64.623 C38.917,55.078 44.893,53.922 56.419,59.315 C64.717,63.198 63.266,60.789 54.742,56.529 C48.042,53.181 43.136,52.738 38.435,55.058 M91.5,55.943 C86.767,58.238 80.761,62.43 82.138,62.478 C82.488,62.49 85.747,61.109 89.379,59.41 C100.882,54.027 106.237,55.225 117.634,65.73 C120.035,67.944 122,69.319 122,68.786 C122,67.212 109.436,55.616 106.536,54.514 C102.176,52.856 96.817,53.366 91.5,55.943 M34.365,71.75 C30.011,75.57 26.162,83.565 19.612,102.394 C15.794,113.369 15.286,115.601 16.737,115.028 C22.792,112.639 30.933,111.368 35.059,112.168 C39.305,112.99 39.667,113.347 43.299,120.264 C46.334,126.045 47.54,127.477 49.299,127.384 C51.04,127.292 51.127,127.171 49.718,126.804 C47.899,126.331 35.603,103.19 36.208,101.376 C36.381,100.858 39.667,105.612 43.511,111.94 C47.355,118.268 50.749,123.458 51.053,123.473 C51.79,123.509 66.075,106.045 68.074,102.663 C70.262,98.961 75.623,98.378 76.888,101.704 C77.724,103.904 91.948,121.732 93.761,122.852 C94.225,123.139 97.708,118.382 101.501,112.281 C105.293,106.18 108.553,101.658 108.744,102.232 C109.324,103.971 97.288,125.867 95.327,126.639 C93.839,127.226 93.981,127.372 96.088,127.43 C98.342,127.491 99.084,126.602 101.845,120.537 C104.798,114.049 105.301,113.496 109.215,112.442 C113.738,111.224 118.622,111.691 125.248,113.974 C127.544,114.764 129.56,115.273 129.729,115.104 C130.105,114.728 124.019,97.139 119.89,86.666 C114.797,73.748 110.031,68.5 103.395,68.5 C100.913,68.5 100.814,68.644 102.193,70.25 C105.133,73.673 105.128,75.526 102.17,78.484 C98.644,82.01 93.476,83.487 84.643,83.494 C78.747,83.499 77.873,83.274 78.404,81.889 C78.857,80.709 78.596,80.441 77.43,80.889 C76.553,81.225 75.311,81.515 74.668,81.533 C74.026,81.552 74.423,82.339 75.552,83.283 C77.548,84.953 77.474,85 72.873,85 C68.568,85 68.275,84.854 69.614,83.374 C70.915,81.937 70.897,81.674 69.461,81.124 C67.179,80.248 67,80.312 67,82 C67,83.199 65.547,83.491 59.75,83.456 C45.232,83.368 37.639,77.744 42.557,70.723 C44.062,68.573 44.015,68.5 41.092,68.5 C39.109,68.5 36.796,69.618 34.365,71.75 M39.87,83.81 C42.781,87.388 57.264,89.75 62.5,87.5 C63.957,86.874 63.006,86.617 59,86.555 C53.794,86.473 44.887,84.734 40.5,82.942 C38.721,82.216 38.651,82.312 39.87,83.81 M101.5,84.201 C99.3,84.998 93.912,85.913 89.526,86.233 C84.247,86.619 82.219,87.077 83.526,87.588 C88.124,89.385 100.118,87.69 104.971,84.558 C107.545,82.897 105.64,82.701 101.5,84.201 M69.5,87.5 C69.124,88.108 70.57,88.494 73.191,88.485 C76.342,88.473 77.097,88.209 76,87.5 C74.037,86.231 70.284,86.231 69.5,87.5 M41,92.109 C41,92.664 41.576,93.905 42.28,94.868 C43.335,96.311 44.049,96.432 46.345,95.559 C49.697,94.285 58.955,94.185 60.877,95.403 C61.94,96.076 61.298,97.14 58.062,100.063 C52.846,104.775 50.971,108.315 51.102,113.2 L51.205,117 L51.959,113.832 C53.218,108.548 57.638,102.023 62.013,98.991 L66.153,96.122 L62.366,94.179 C59.207,92.558 57.313,92.334 50.946,92.825 C45.776,93.223 42.94,93.04 42.157,92.257 C41.476,91.576 41,91.516 41,92.109 M103,92.48 C102.175,93.003 98.35,93.166 94.5,92.843 C89.315,92.408 86.527,92.663 83.75,93.827 C80.428,95.219 78.608,97.5 80.82,97.5 C83.173,97.5 90.005,104.963 91.587,109.261 C93.83,115.358 95.454,117.173 94.485,112.5 C93.389,107.216 91.123,103.391 86.678,99.323 L82.66,95.645 L86.08,94.722 C89.914,93.687 96.441,94.13 99.212,95.614 C101.322,96.742 102.564,96.183 104.03,93.444 C105.207,91.244 105.104,91.148 103,92.48 M72,115.5 C72,121.5 72.4,125.5 73,125.5 C73.6,125.5 74,121.5 74,115.5 C74,109.5 73.6,105.5 73,105.5 C72.4,105.5 72,109.5 72,115.5 M65.236,110.25 C63.968,112.91 64.429,124.81 65.819,125.273 C66.666,125.555 67,123.239 67,117.083 C67,112.363 66.791,108.5 66.535,108.5 C66.28,108.5 65.695,109.287 65.236,110.25 M78,116.878 C78,123.875 78.283,125.5 79.5,125.5 C80.698,125.5 81,124.014 81,118.122 C81,112.785 80.585,110.401 79.5,109.5 C78.186,108.41 78,109.327 78,116.878 M58.607,120.082 C57.671,122.52 57.888,125.5 59,125.5 C59.55,125.5 60,123.925 60,122 C60,118.205 59.56,117.599 58.607,120.082 M85.032,121.75 C85.009,124.431 85.428,125.5 86.5,125.5 C88.416,125.5 88.434,122.456 86.532,119.941 C85.156,118.122 85.062,118.236 85.032,121.75 M63.75,128.245 C68.837,128.427 77.162,128.427 82.25,128.245 C87.337,128.064 83.175,127.915 73,127.915 C62.825,127.915 58.662,128.064 63.75,128.245 M58,130.979 C58,131.814 71.67,140.5 72.984,140.5 C74.16,140.5 89,131.536 89,130.825 C89,130.646 82.025,130.5 73.5,130.5 C64.975,130.5 58,130.715 58,130.979" id="Shape"></path>
        </g>
    </g>
</svg>