<?xml version="1.0" encoding="UTF-8"?>
<svg width="222px" height="131px" viewBox="0 0 222 131" version="1.1" xmlns="http://www.w3.org/2000/svg" xmlns:xlink="http://www.w3.org/1999/xlink">
    <!-- Generator: Sketch 63.1 (92452) - https://sketch.com -->
    <title>yoda</title>
    <desc>Created with Sketch.</desc>
    <g id="Page-1" stroke="none" stroke-width="1" fill="none" fill-rule="evenodd">
        <g id="yoda" transform="translate(0.000000, -1.000000)" fill="#000000">
            <path d="M105,1.946 C101.86,2.918 95.567,6.424 91,9.745 C84.923,14.163 79.202,21.24 75.287,29.182 C71.632,36.595 70,38.568 70,35.573 C70,33.805 65.097,29.822 63.861,30.586 C63.364,30.893 63.88,31.9 65.009,32.822 C67.221,34.631 68.996,42 67.22,42 C66.647,42 65.042,40.65 63.653,39 C59.303,33.83 58.543,35.574 62.564,41.499 L65.128,45.277 L61.814,43.073 C57.723,40.351 51.937,37.73 51.339,38.327 C51.095,38.572 52.381,39.694 54.197,40.82 C56.014,41.946 59.054,44.476 60.954,46.442 L64.408,50.016 L59.209,47.508 C53.473,44.741 53,44.615 53,45.847 C53,46.313 54.013,47.188 55.25,47.791 C57.201,48.743 57.035,48.81 54,48.299 C48.647,47.396 41.259,44.278 35.606,40.535 C24.151,32.95 15.49,29.907 9.579,31.391 C6.472,32.171 0,37.696 0,39.568 C0,41.279 3.129,43 6.238,43 C10.193,43 17.665,48.523 21.394,54.201 C23.308,57.115 26.117,62.562 27.637,66.305 C30.091,72.349 31.107,73.614 36.721,77.621 C46.43,84.549 51.149,86.323 57.871,85.57 C63.717,84.916 63.756,85.176 58.337,88.691 C56.78,89.701 56.745,89.891 58.11,89.941 C58.996,89.974 61.379,88.875 63.405,87.5 C67.647,84.621 68,84.53 68,86.313 C68,87.737 72.575,92.359 75,93.385 C75.825,93.734 75.038,93.801 73.25,93.535 C70.407,93.111 70.003,93.329 70.024,95.275 C70.099,102.031 74.173,111 77.167,111 C77.953,111 79.041,111.839 86.929,118.528 C95.389,125.702 100.144,129.162 103.428,130.534 C107.936,132.418 117.072,132.415 121.587,130.528 C124.567,129.283 133.482,122.603 142.274,115.027 C143.498,113.972 146.075,112.055 148,110.767 C152.198,107.958 153.889,104.733 154.684,98.018 L155.279,92.994 L151.89,93.524 C149.209,93.943 148.941,93.856 150.612,93.11 C152.697,92.178 156.448,88.03 157.311,85.7 C157.624,84.857 158.965,85.169 161.826,86.75 C166.419,89.289 169.605,89.772 166.559,87.468 C164.681,86.048 164.697,85.999 167.059,85.977 C169.673,85.952 175.619,82.787 184.37,76.763 C188.785,73.724 190.37,71.806 192.856,66.494 C198.815,53.761 209.371,43 215.904,43 C221.353,43 223.817,38.903 220.25,35.776 C212.047,28.583 202.995,29.548 186.77,39.345 C178.058,44.605 174.336,46.515 171,47.439 C169.155,47.95 168.885,47.866 169.971,47.12 C173.335,44.808 170.035,45.323 164.478,47.977 L158.5,50.832 L165.454,44.416 C172.813,37.626 172.761,35.995 165.345,41 C162.9,42.65 160.711,44 160.48,44 C160.249,44 161.177,42.355 162.541,40.344 C165.79,35.556 164.823,34.779 160.772,38.922 C159.009,40.725 157.413,41.739 157.225,41.175 C156.564,39.192 159.078,32.056 160.771,31.108 C161.713,30.581 162.164,29.83 161.773,29.44 C160.568,28.234 155.915,31.978 154.459,35.325 C153.619,37.258 153.063,37.802 153.039,36.717 C153.018,35.736 151.822,32.609 150.383,29.768 C140.284,9.839 119.888,-2.664 105,1.946 M103.736,6.462 C91.838,11.023 77.76,27.906 75.447,40.387 L74.726,44.274 L76.951,42.049 C79.985,39.015 85.143,37 89.876,37 C92.061,37 95.971,35.914 98.658,34.561 C102.853,32.448 104.168,32.236 108.5,32.975 C111.437,33.475 115.308,33.436 117.882,32.879 C122.656,31.848 127.931,33.006 130.042,35.551 C130.704,36.348 132.934,37 134.997,37 C141.02,37 144.795,38.08 147.486,40.574 C149.596,42.53 149.994,42.631 149.96,41.202 C149.897,38.54 145.867,30.033 141.78,23.934 C132.563,10.181 115.034,2.131 103.736,6.462 M13.593,36.398 C22.543,38.713 30.33,43.629 37.265,51.345 C43.197,57.945 48.474,61.588 54.875,63.504 C56.5,63.99 57.034,63.865 56.566,63.107 C56.165,62.458 56.631,61.977 57.691,61.944 C58.686,61.913 57.601,61.117 55.28,60.174 C52.958,59.231 50.483,57.848 49.78,57.101 C48.445,55.683 48.866,55.722 56,57.666 C58.329,58.3 58.398,58.221 57,56.5 C55.602,54.779 55.67,54.701 58,55.351 C59.375,55.734 61.85,56.338 63.5,56.693 C66.157,57.264 66.35,57.155 65.192,55.747 C64.473,54.872 61.998,53.842 59.692,53.458 C50.629,51.948 42.029,48.51 31.519,42.193 C21.611,36.239 19.951,35.569 14.519,35.337 L8.5,35.081 L13.593,36.398 M98.322,37.75 C95.995,38.987 92.338,40 90.195,40 C84.412,40 80.13,41.847 78.47,45.059 C76.421,49.021 76.496,49.089 81.126,47.456 C88.628,44.809 96.664,45.837 99.602,49.821 C100.417,50.926 103.49,51.439 111.402,51.791 L122.101,52.267 L126.464,49.133 C129.785,46.748 131.887,46 135.264,46 C140.371,46 145.666,47.571 148.383,49.892 C150.168,51.417 150.226,51.37 149.489,49 C147.495,42.587 143.511,40.003 135.601,39.996 C133.149,39.994 130.093,39.123 128,37.83 C124.998,35.976 122.938,35.656 113.526,35.584 C103.968,35.511 102.007,35.79 98.322,37.75 M200.751,35.999 C199.24,36.454 195.014,38.553 191.361,40.663 C187.707,42.773 182.869,45.554 180.609,46.841 C178.349,48.129 172.909,50.274 168.519,51.608 C164.13,52.941 159.856,54.716 159.02,55.551 C157.662,56.909 157.872,56.945 161.001,55.89 C162.925,55.241 164.991,54.329 165.592,53.864 C167.754,52.188 167.863,54.291 165.707,56.091 C162.962,58.383 164.276,58.466 170.376,56.388 C176.662,54.246 177.422,55.335 171.61,58.159 C167.934,59.945 167.305,60.591 168.558,61.292 C171.256,62.802 176.931,58.412 185.898,47.879 C189.862,43.223 201.101,37.321 207.66,36.451 C212.1,35.862 213.059,36.059 214.949,37.949 C216.146,39.146 217.659,39.941 218.313,39.716 C218.966,39.491 217.925,38.34 216,37.157 C212.334,34.906 205.987,34.424 200.751,35.999 M207.5,41.943 C202.602,44.15 198.736,47.676 196.523,51.956 C194.492,55.883 195.094,57.032 197.366,53.564 C200.233,49.189 204.834,45.032 209.636,42.479 C214.986,39.634 213.47,39.254 207.5,41.943 M15.733,44.124 C16.412,44.808 17.219,45.115 17.526,44.807 C17.834,44.499 17.279,43.94 16.293,43.564 C14.868,43.022 14.753,43.136 15.733,44.124 M67.441,47.445 C68.509,48.3 69.821,49 70.358,49 C71.628,49 71.061,48.538 68,47.08 C65.643,45.958 65.611,45.978 67.441,47.445 M81.311,59.075 C79.006,60.216 76.555,61.831 75.863,62.665 C75.171,63.499 76.803,62.954 79.489,61.454 C82.176,59.954 85.527,58.377 86.937,57.949 C88.981,57.33 89.095,57.155 87.5,57.087 C86.4,57.04 83.615,57.935 81.311,59.075 M109.589,57.856 C109.298,58.326 110.172,58.499 111.53,58.239 C112.889,57.979 114,57.594 114,57.383 C114,56.61 110.101,57.027 109.589,57.856 M138.111,57.962 C139.547,58.397 142.874,60.014 145.504,61.555 C148.159,63.111 150.093,63.778 149.852,63.055 C149.219,61.156 140.95,56.986 138.015,57.086 L135.5,57.172 L138.111,57.962 M110,61 C108.172,62.181 109.751,62.181 112.5,61 C113.819,60.433 113.989,60.122 113,60.086 C112.175,60.055 110.825,60.467 110,61 M191.564,61.707 C191.022,63.132 191.136,63.247 192.124,62.267 C192.808,61.588 193.115,60.781 192.807,60.474 C192.499,60.166 191.94,60.721 191.564,61.707 M84.5,64.225 C82.85,64.812 80.612,65.901 79.527,66.646 C78.443,67.391 76.643,68.036 75.527,68.079 C74.368,68.124 74.058,68.381 74.802,68.68 C75.518,68.967 78.402,68.213 81.21,67.005 C85.254,65.265 87.477,64.927 91.907,65.378 C97.315,65.928 97.401,65.899 94.5,64.518 C90.97,62.838 88.596,62.768 84.5,64.225 M130.5,64.518 C127.599,65.899 127.685,65.928 133.093,65.378 C137.523,64.927 139.746,65.265 143.79,67.005 C146.598,68.213 149.482,68.967 150.198,68.68 C151.079,68.326 150.967,68.132 149.849,68.079 C148.941,68.036 145.791,66.879 142.849,65.51 C136.752,62.671 134.722,62.508 130.5,64.518 M162.813,63.683 C163.534,63.972 164.397,63.936 164.729,63.604 C165.061,63.272 164.471,63.036 163.417,63.079 C162.252,63.127 162.015,63.364 162.813,63.683 M30,64.445 C30,66.131 33.384,73 34.215,73 C34.763,73 36.86,74.305 38.874,75.9 C40.888,77.495 44.603,79.805 47.128,81.032 C51.092,82.957 52.63,83.166 58.36,82.552 C63.035,82.051 65,81.428 65,80.445 C65,79.36 64.429,79.267 62.435,80.025 C59.042,81.315 52.698,81.297 53.5,80 C53.84,79.45 55.554,78.954 57.309,78.897 C59.064,78.841 57.012,78.208 52.748,77.491 C44.028,76.025 37.862,72.884 33.137,67.503 C31.412,65.538 30,64.162 30,64.445 M105.5,65 C105.84,65.55 106.316,66 106.559,66 C106.802,66 107,65.55 107,65 C107,64.45 106.523,64 105.941,64 C105.359,64 105.16,64.45 105.5,65 M108.398,66.393 C107.33,68.698 107.407,68.755 110.947,68.28 C113.865,67.889 115.225,68.318 117.724,70.421 C120.084,72.407 121.045,72.739 121.647,71.776 C123.206,69.28 122.899,67.897 120.926,68.524 C119.524,68.969 118.706,68.448 117.848,66.565 C116.908,64.502 115.976,64.002 113.089,64.0079469 C110.29,64.014 109.258,64.539 108.398,66.393 M119,65 C119,65.55 119.477,66 120.059,66 C120.641,66 120.84,65.55 120.5,65 C120.16,64.45 119.684,64 119.441,64 C119.198,64 119,64.45 119,65 M186.478,68.023 C182.102,72.504 173.961,76.976 170.054,77.045 C167.508,77.09 167.51,77.095 170.5,78.554 C173.368,79.953 173.193,79.996 166.5,79.54 L159.5,79.062 L162,81.009 C163.375,82.08 165.53,82.966 166.79,82.9781645 C169.604,83.005 176.266,79.704 181.144,75.867 C183.148,74.29 185.234,73 185.78,73 C186.326,73 187.558,71.313 188.519,69.25 C189.479,67.188 190.457,65.162 190.692,64.75 C191.632,63.096 190.212,64.199 186.478,68.023 M102.16,69.695 C101.913,73.363 101.926,73.377 103.964,71.533 C105.886,69.793 105.91,69.559 104.353,67.838 C103.438,66.827 102.627,66 102.549,66 C102.472,66 102.297,67.663 102.16,69.695 M108.228,71.039 C106.978,71.541 105.692,72.638 105.371,73.476 C105.049,74.314 104.047,75.014 103.143,75.031 C102.239,75.049 100.691,76.174 99.703,77.531 C97.744,80.223 98.056,80.607 100.805,78.89 C102.155,78.047 103.757,78.178 107.452,79.432 C111.984,80.971 112.687,80.97 117.606,79.423 L122.89,77.761 L125.473,80.63 C126.894,82.209 130.108,86.313 132.616,89.75 C136.959,95.703 139.99,98.007 138.537,94.25 C138.165,93.287 137.61,91.262 137.305,89.75 C136.762,87.06 136.853,87 141.474,87 C146.895,87 152.585,84.644 154.129,81.76 C155.481,79.233 152.571,71 150.326,71 C149.497,71 147.019,72.54 144.821,74.422 C142.622,76.303 139.176,78.282 137.162,78.818 C133.847,79.701 133.762,79.803 136.265,79.897 C137.786,79.953 141.519,78.595 144.561,76.879 C147.602,75.162 150.375,74.042 150.723,74.389 C151.571,75.238 146.17,80.829 142.8,82.589 C137.29,85.468 130.258,83.686 126.059,78.347 C124.593,76.485 124.291,75.438 125.077,74.952 C125.868,74.464 125.889,74.05 125.147,73.591 C124.561,73.229 123.21,73.477 122.144,74.142 C120.503,75.167 119.721,74.943 117.027,72.676 C113.682,69.861 111.959,69.541 108.228,71.039 M71.685,74.534 C69.183,79.782 69.564,81.632 73.732,84.464 C76.584,86.402 78.733,87 82.843,87 L88.223,87 L87.566,90.5 C86.75,94.848 87.268,94.904 89.879,90.75 C91.003,88.963 93.064,86.193 94.461,84.594 C97.705,80.882 97.653,80.611 94.05,82.474 C88.291,85.452 83.183,84.299 77.25,78.684 C71.54,73.279 73.37,72.376 80.661,77 C83.478,78.787 86.627,79.958 88.446,79.897 C91.495,79.793 91.494,79.792 87.838,78.818 C85.824,78.282 82.378,76.303 80.179,74.422 C77.981,72.54 75.549,71 74.776,71 C74.003,71 72.612,72.59 71.685,74.534 M95,72.066 C93.075,72.539 89.25,72.72 86.5,72.467 C82.078,72.06 81.847,72.128 84.5,73.05 C87.835,74.21 96.058,73.648 98.756,72.077 C100.804,70.884 99.815,70.881 95,72.066 M126.244,71.999 C128.754,73.573 136.991,74.25 140.5,73.17 C142.942,72.419 142.198,72.262 136.5,72.331 C132.65,72.377 128.375,72.075 127,71.659 C124.953,71.041 124.816,71.103 126.244,71.999 M99.24,84.786 C98.054,86.896 95.227,90.733 92.957,93.312 C90.687,95.89 89.249,98 89.761,98 C91.445,98 97,94.874 97,93.927 C97,93.417 97.45,93 98,93 C98.55,93 99,93.73 99,94.622 C99,95.906 99.295,96 100.411,95.074 C101.434,94.225 102.01,94.208 102.507,95.011 C102.964,95.751 103.649,95.517 104.564,94.31 C105.421,93.179 105.948,92.981 105.968,93.782 C105.986,94.487 107.013,95.444 108.25,95.908 C110.072,96.591 110.626,96.347 111.161,94.626 C111.815,92.521 111.829,92.523 112.547,94.824 C113.139,96.721 113.741,97.031 115.824,96.508 C117.228,96.156 118.952,95.11 119.656,94.184 C120.85,92.613 120.939,92.618 120.968,94.25 C121.005,96.271 122.559,96.588 123.417,94.75 C123.883,93.75 124.117,93.75 124.583,94.75 C125.417,96.535 127.33,96.303 126.638,94.5 C125.765,92.225 127.372,92.703 130,95.5 C131.292,96.875 132.86,98 133.485,98 C134.11,98 132.456,95.658 129.81,92.795 C127.165,89.932 125,87.097 125,86.495 C125,85.893 124.479,84.879 123.843,84.243 C122.967,83.367 121.977,83.683 119.766,85.543 C118.16,86.895 115.804,88.262 114.531,88.582 C111.797,89.268 107.007,86.998 103.731,83.465 L101.397,80.949 L99.24,84.786 M101.309,104.41 C104.32,105.662 120.116,105.73 122.173,104.5 C123.349,103.797 120.173,103.5 111.482,103.5 C103.112,103.5 99.826,103.794 101.309,104.41 M145,105.838 C145,106.298 142.454,107.922 139.342,109.446 C136.23,110.97 133.193,112.62 132.592,113.113 C131.991,113.606 128.8,116.015 125.5,118.465 C122.2,120.916 118.702,123.704 117.726,124.661 C115.456,126.887 109.582,126.911 107.274,124.703 C104.463,122.015 96.449,116.284 93.026,114.513 C91.305,113.624 89.648,112.247 89.344,111.453 C89.039,110.66 88.359,110.278 87.832,110.604 C87.305,110.929 86.028,110.431 84.995,109.495 C83.961,108.56 82.676,107.953 82.137,108.147 C81.263,108.462 93.737,118.668 102.576,124.87 C106.644,127.724 113.453,128.666 118.347,127.051 C120.318,126.4 124.084,123.954 126.715,121.616 C129.347,119.277 134.988,114.804 139.25,111.675 C146.891,106.066 147.969,105 146,105 C145.45,105 145,105.377 145,105.838" id="Shape" fill-opacity="0.11"></path>
            <path d="M105.286,2.394 C91.654,6.837 79.552,18.711 73.513,33.57 L71.275,39.077 L70,36 C69.299,34.308 67.917,32.491 66.929,31.962 C63.976,30.382 63.524,30.861 65.714,33.25 C67.691,35.406 69.375,43 67.876,43 C67.479,43 65.769,41.615 64.077,39.923 C62.385,38.231 61,37.165 61,37.555 C61,39.479 65.532,45.224 68.097,46.55 C69.693,47.376 71,48.478 71,48.999 C71,49.521 67.383,47.484 62.961,44.474 C54.645,38.811 49.711,36.796 56.6,41.876 C58.745,43.458 62.075,46.407 63.999,48.43 L67.498,52.109 L61.499,49.067 C54.658,45.598 52.057,45.05 56.5,48.014 L59.5,50.015 L56,49.365 C49.702,48.194 42.433,45.053 33.39,39.595 C21.094,32.173 15.413,30.26 10.252,31.806 C5.143,33.337 1,36.605 1,39.104 C1,41.198 1.197,41.311 7.841,43.014 C15.817,45.058 22.486,52.863 28.423,67.104 C31.021,73.336 31.634,74.008 39.338,79.063 C47.098,84.155 47.894,84.445 55.5,84.959 C63.448,85.496 63.484,85.511 61.027,87.25 C57.554,89.709 59.784,89.429 63.962,86.882 C66.334,85.436 67.548,85.144 67.818,85.953 C68.726,88.677 72.796,91.972 77,93.389 C80.634,94.613 80.984,94.914 78.815,94.952 C77.338,94.979 74.976,94.561 73.565,94.025 C71.043,93.066 71,93.127 71,97.624 C71,103.525 73.168,107.947 77.406,110.69 C79.267,111.895 84.774,116.217 89.645,120.296 C101.394,130.135 103.241,131 112.5,131 C121.723,131 123.385,130.221 135.279,120.322 C140.215,116.214 145.766,111.873 147.616,110.676 C151.736,108.009 154,103.538 154,98.064 L154,93.931 L148.75,94.506 L143.5,95.08 L148.493,93.29 C151.941,92.054 154.108,90.506 155.493,88.289 C157.7,84.757 159.495,84.303 162.441,86.532 C163.509,87.339 164.859,87.986 165.441,87.968 C166.024,87.951 165.626,87.276 164.559,86.468 C162.74,85.093 162.853,85 166.349,85 C170.401,85 176.476,82.295 182,78.033 C183.925,76.548 186.182,75.087 187.016,74.787 C187.85,74.487 189.183,72.95 189.978,71.371 C199.921,51.622 209.258,42.052 218.628,42.006 C219.248,42.003 220.322,41.317 221.016,40.481 C222.049,39.236 221.936,38.58 220.388,36.84 C218.109,34.278 211.365,31.052 208.225,31.022 C204.151,30.983 194.913,34.831 185.611,40.443 C175.722,46.408 166.739,50.224 169.001,47.498 C170.745,45.397 169.689,45.617 163.867,48.567 C161.081,49.979 158.6,50.934 158.355,50.688 C158.109,50.443 160.967,47.415 164.704,43.959 C171.386,37.783 170.134,37.997 160.748,44.638 C158.134,46.487 155.434,47.998 154.748,47.996 C154.061,47.994 154.9,47.139 156.611,46.095 C159.488,44.341 164,39.097 164,37.507 C164,37.13 162.615,37.987 160.923,39.411 C159.231,40.835 157.491,42 157.058,42 C155.696,42 157.656,34.038 159.526,31.971 C160.507,30.887 160.808,30 160.194,30 C158.726,30 155.185,33.842 154.414,36.27 C153.953,37.724 152.825,36.17 149.75,29.844 C140.253,10.308 119.783,-2.33 105.286,2.394 M106.286,5.419 C91.772,10.064 76.559,28.082 74.553,43 L73.948,47.5 L75.812,44.5 C78.724,39.813 80.398,38.901 88.208,37.748 C92.219,37.156 96.319,35.973 97.319,35.118 C100.049,32.787 124.474,32.511 128,34.772 C129.375,35.653 133.84,36.956 137.923,37.666 C143.456,38.628 146.044,39.626 148.091,41.587 L150.836,44.217 L149.867,39.902 C147.2,28.033 135.543,13.806 123.861,8.161 C115.977,4.352 111.704,3.685 106.286,5.419 M8.5,35.432 L5.5,36.774 L9.633,36.771 C18.735,36.764 27.054,41.284 36.739,51.499 C44.801,60.001 51.461,63.73 60.173,64.62 C64.101,65.021 65.106,64.884 64,64.097 C63.175,63.511 61.15,62.97 59.5,62.897 L56.5,62.763 L59.47,62.127 C62.283,61.524 62.165,61.42 57.222,60.154 C54.352,59.418 51.722,58.359 51.377,57.801 C51,57.191 51.497,57.007 52.625,57.34 C53.656,57.644 56.3,58.151 58.5,58.465 C61.662,58.917 62.029,58.83 60.25,58.05 C56.765,56.523 57.582,55.91 62.133,56.637 C65.413,57.162 66.171,57.012 65.803,55.91 C65.532,55.097 60.883,53.393 54.581,51.797 C43.934,49.1 41.656,48.078 29,40.316 C18.62,33.951 14.178,32.893 8.5,35.432 M201.363,35.428 C199.087,36.14 192.886,39.312 187.582,42.477 C182.278,45.642 174.092,49.468 169.39,50.98 C164.689,52.492 160.106,54.465 159.207,55.365 C157.067,57.505 159.063,57.536 163.143,55.426 C167.384,53.233 167.959,54.445 163.863,56.942 C159.87,59.377 160.916,59.536 167.591,57.511 C174.53,55.406 175.303,55.773 169.643,58.485 C165.996,60.232 165.248,60.931 166.643,61.29 C168.052,61.653 167.897,61.805 166,61.919 C163.508,62.07 157.538,64.897 159.568,64.965 C162.144,65.05 171.609,61.625 175,59.381 C177.041,58.031 181.263,54.036 184.384,50.503 C191.324,42.648 201.645,36.994 209.328,36.84 C211.977,36.787 214.636,37.236 215.239,37.839 C216.421,39.021 216.588,38.933 209.5,40.858 C203.559,42.47 198.529,47.187 195.171,54.294 C190.534,64.109 185.071,70.309 177.904,73.89 C174.181,75.75 170.037,77.031 167.59,77.077 L163.5,77.154 L167.5,78.556 L171.5,79.958 L167.5,79.578 C165.3,79.368 162.713,78.88 161.75,78.492 C160.642,78.045 160,78.243 160,79.033 C160,82.849 168.27,84.18 173.513,81.208 C184.689,74.873 186.998,72.649 191.644,63.74 C198.811,49.997 206.83,42.451 216.338,40.5 C218.818,39.991 219.007,39.714 217.838,38.304 C216.135,36.25 210.747,33.98 207.782,34.067 C206.527,34.104 203.638,34.716 201.363,35.428 M98.656,37.066 C97.092,38.012 92.661,39.254 88.809,39.826 C81.329,40.936 78.703,42.546 77.163,46.964 L76.197,49.733 L81.109,47.866 C88.681,44.99 94.815,45.686 99.5,49.956 C101,51.323 103.913,51.953 111.155,52.475 C121.468,53.22 122.896,52.87 128.468,48.232 C131.091,46.05 132.111,45.823 137.226,46.287 C140.41,46.576 144.587,47.739 146.508,48.872 C150.552,51.258 151.002,50.156 147.996,45.225 C145.723,41.497 143.757,40.572 136,39.582 C132.975,39.196 129.375,38.138 128,37.23 C124.264,34.763 102.661,34.642 98.656,37.066 M4,39.954 C4.825,40.513 6.305,40.976 7.29,40.985 C11.889,41.024 24,50.58 24,54.17 C24,54.81 24.258,55.075 24.574,54.76 C25.573,53.76 22.233,48.411 18.637,45.254 C15.316,42.339 12.009,40.905 5.5,39.559 C3.292,39.103 2.896,39.207 4,39.954 M85.358,56.954 C81.687,57.829 75,61.765 75,63.049 C75,64.063 76.673,63.447 82.926,60.128 C86.363,58.305 88.368,57.894 91.894,58.292 C96.155,58.772 96.283,58.719 93.968,57.437 C91.235,55.924 89.974,55.853 85.358,56.954 M131.032,57.412 C128.702,58.726 128.817,58.775 133.095,58.293 C136.821,57.873 138.742,58.346 143.919,60.959 C150.748,64.407 152.076,62.99 145.427,59.351 C140.139,56.456 134.157,55.651 131.032,57.412 M109.076,57.932 C108.121,58.536 109.275,58.823 112.576,58.802 C116.105,58.78 116.934,58.54 115.5,57.956 C112.804,56.857 110.786,56.849 109.076,57.932 M90.652,60.851 C96.197,61.862 102.124,65.909 101.771,68.441 C101.396,71.124 96.158,72.313 87.197,71.752 C81.873,71.418 80.192,71.593 80.995,72.397 C81.62,73.022 85.215,73.448 89.298,73.379 C100.006,73.199 103.514,72.628 105.381,70.762 C106.307,69.836 108.628,68.785 110.54,68.427 C113.387,67.892 114.666,68.271 117.616,70.521 C120.364,72.617 121.406,72.961 122.015,71.975 C122.652,70.945 123.566,71.041 126.536,72.45 C130.615,74.386 142.08,74.32 144.05,72.35 C144.792,71.608 142.897,71.435 137.69,71.769 C130.353,72.24 123,70.815 123,68.922 C123,68.415 123.45,68 124,68 C124.55,68 124.887,67.482 124.75,66.848 C124.306,64.801 131.055,61.008 135.398,60.864 C137.962,60.779 138.607,60.559 137.119,60.277 C132.69,59.439 128.313,61.019 123.981,65.018 C121.608,67.208 119.529,69 119.359,69 C119.19,69 118.353,67.65 117.5,66 C115.453,62.042 110.537,61.727 108.843,65.445 C107.211,69.028 105.269,69.316 103.717,66.206 C102.974,64.718 101.778,63.631 101.058,63.792 C100.338,63.952 98.924,63.336 97.915,62.423 C96.906,61.51 93.926,60.613 91.291,60.428 L86.5,60.093 L90.652,60.851 M109,61 C109,61.55 110.827,62 113.059,62 C115.51,62 116.873,61.604 116.5,61 C116.16,60.45 114.334,60 112.441,60 C110.548,60 109,60.45 109,61 M68,63 C69.939,64.253 71,64.253 71,63 C71,62.45 69.987,62.007 68.75,62.015 C66.931,62.028 66.787,62.216 68,63 M30.685,67.195 C32.008,70.559 33.855,72.78 37.5,75.393 C46.766,82.033 49.287,83 57.344,83 C64.042,83 64.82,82.795 65.316,80.901 C65.78,79.123 65.53,78.902 63.682,79.453 C62.482,79.811 59.7,80.309 57.5,80.56 L53.5,81.016 L58.5,79.158 L63.5,77.301 L55,76.823 C44.808,76.25 39.527,73.914 33.185,67.17 L28.869,62.582 L30.685,67.195 M80.5,65.711 C73.693,68.743 73.513,68.847 74.083,69.415 C74.313,69.643 77.388,68.828 80.917,67.605 C86.129,65.798 88.377,65.522 92.89,66.134 C99.625,67.048 100.516,66.531 95.686,64.513 C90.599,62.388 87.392,62.641 80.5,65.711 M105,64.5 C105,65.325 105.45,66 106,66 C106.55,66 107,65.325 107,64.5 C107,63.675 106.55,63 106,63 C105.45,63 105,63.675 105,64.5 M129.099,64.554 C124.536,66.535 125.393,66.991 132.004,66.102 C136.515,65.495 138.648,65.781 143.904,67.694 C147.426,68.977 150.538,69.795 150.82,69.513 C151.506,68.828 151.42,68.777 144.375,65.687 C137.484,62.664 134.042,62.409 129.099,64.554 M76.25,65.031 C75.013,65.529 74,66.175 74,66.468 C74,67.438 75.592,67.02 77.559,65.532 C79.771,63.858 79.462,63.74 76.25,65.031 M119,65 C119,65.55 119.45,66 120,66 C120.55,66 121,65.55 121,65 C121,64.45 120.55,64 120,64 C119.45,64 119,64.45 119,65 M147.441,65.55 C149.591,67.156 151.42,67.489 150.575,66.121 C150.276,65.637 149.012,64.984 147.766,64.67 C145.58,64.12 145.568,64.151 147.441,65.55 M157,66.877 C157,67.368 158.111,68.498 159.47,69.388 C161.139,70.482 161.781,70.594 161.451,69.732 C160.836,68.13 157,65.669 157,66.877 M67,69.059 C67,69.641 67.45,69.84 68,69.5 C68.55,69.16 69,68.684 69,68.441 C69,68.198 68.55,68 68,68 C67.45,68 67,68.477 67,69.059 M108,70.737 C107.175,71.055 105.887,72.181 105.137,73.238 C104.229,74.519 103.052,74.979 101.607,74.616 C100.332,74.296 98.215,74.879 96.469,76.029 C92.248,78.812 86.325,78.585 81.732,75.464 C79.679,74.069 78,72.494 78,71.964 C78,71.434 76.887,71 75.526,71 C72.775,71 70,75.157 70,79.276 C70,83.701 77.448,87.978 85.18,87.994 C87.727,88 87.814,88.162 86.93,91.243 C85.368,96.689 85.819,96.536 90.883,89.899 C93.569,86.38 97.07,82.272 98.665,80.772 L101.563,78.044 L106.808,79.722 C112.114,81.418 113.126,81.328 122.25,78.34 C123.368,77.974 124,78.283 124,79.196 C124,79.983 125.292,81.864 126.872,83.377 C128.451,84.89 131.488,88.565 133.622,91.542 C135.755,94.52 137.894,96.967 138.375,96.9780922 C139.246,97 138.752,93.082 137.463,89.75 C136.915,88.334 137.332,87.999 139.643,87.994 C147.115,87.98 155,83.769 155,79.794 C155,78.772 154.348,76.375 153.551,74.468 C152.434,71.796 151.517,71 149.551,71 C148.148,71 147,71.434 147,71.964 C147,72.494 145.321,74.069 143.268,75.464 C138.266,78.863 132.714,78.849 127.675,75.425 C124.673,73.385 123.59,73.096 122.463,74.031 C121.332,74.97 120.406,74.678 117.943,72.606 C114.992,70.122 111.36,69.44 108,70.737 M77.992,78.492 C83.375,83.977 87.396,85.027 93.123,82.445 C95.32,81.454 98.022,79.373 99.127,77.822 C101.582,74.374 101.341,74.35 95.852,77.488 C89.989,80.84 85.572,80.704 80,77 C73.606,72.749 72.883,73.286 77.992,78.492 M145,77 C139.428,80.704 135.011,80.84 129.148,77.488 C123.617,74.326 123.409,74.362 126.015,78.021 C128.72,81.82 134.431,84.314 138.838,83.622 C143.019,82.965 153.675,73.985 150.25,74.0039699 C149.838,74.007 147.475,75.355 145,77 M98.586,84.948 C96.983,87.649 93.882,91.702 91.695,93.956 C89.508,96.209 88.005,98.338 88.354,98.687 C89.13,99.463 95.996,96.068 97.832,94 C99.005,92.678 99.102,92.696 98.651,94.15 C98.244,95.462 98.842,95.8 101.57,95.8 C103.479,95.8 105.007,95.29 105.015,94.65 C105.026,93.815 105.232,93.805 105.765,94.615 C106.169,95.229 107.513,96.046 108.75,96.433 C110.511,96.982 111.007,96.74 111.03,95.317 C111.058,93.665 111.162,93.681 112.178,95.5 C112.792,96.6 113.401,97.635 113.53,97.799 C113.659,97.963 115.393,97.184 117.382,96.066 C119.372,94.949 121,94.446 121,94.95 C121,95.454 122.35,95.828 124,95.781 C126.044,95.723 127.002,95.186 127.005,94.098 C127.009,92.948 127.64,93.248 129.255,95.164 C130.49,96.629 132.625,98.152 134,98.548 C136.098,99.153 135.676,98.394 131.375,93.826 C128.556,90.833 125.482,86.899 124.544,85.085 L122.838,81.786 L119.8,84.893 C115.1,89.701 109.253,88.97 104,82.918 L101.5,80.038 L98.586,84.948 M76.007,100.5 C76.007,102.98 80.462,108.358 86.139,112.73 C89.545,115.354 94.615,119.431 97.405,121.792 C100.392,124.319 104.553,126.686 107.526,127.551 C111.979,128.845 113.169,128.842 117.606,127.524 C120.492,126.667 124.099,124.608 126.068,122.691 C127.956,120.855 134.113,115.85 139.75,111.569 C145.387,107.288 150,103.519 150,103.193 C150,102.867 149.46,103.14 148.8,103.8 C146.962,105.638 146.139,105.236 146.648,102.75 C146.916,101.447 146.456,101.914 145.558,103.858 C144.505,106.137 143.522,107.031 142.503,106.639 C141.586,106.288 141,106.636 141,107.531 C141,108.339 140.55,109.056 140,109.125 C137.974,109.378 137.408,109.654 132.85,112.61 C127.344,116.18 121.622,120.625 118.511,123.75 C115.85,126.423 109.286,126.908 108.362,124.5 C108.045,123.675 107.244,123 106.582,123 C105.919,123 104.505,122.213 103.439,121.25 C100.953,119.006 93.025,113.715 90.75,112.782 C89.787,112.387 89,111.6 89,111.032 C89,110.465 88.662,110.053 88.25,110.118 C85.846,110.498 84.693,109.56 82.883,105.75 C81.404,102.637 81.026,102.258 81.472,104.334 C82.228,107.857 80.642,107.1 77.923,102.641 C76.869,100.913 76.007,99.95 76.007,100.5 M99,103.7 C101.04,104.642 106.047,105.473 111,105.692 C118.009,106.002 120.202,105.716 123.5,104.067 L127.5,102.066 L123.5,102.78 C119.159,103.554 102.165,103.433 98.046,102.599 C96.16,102.217 96.408,102.502 99,103.7" id="Shape" fill-opacity="0.317"></path>
            <path d="M108.232,2.06 C94.246,4.818 78.047,20.208 72.984,35.55 C71.836,39.026 71.571,39.255 70.596,37.612 C69.993,36.595 68.687,34.804 67.694,33.631 C66.028,31.666 65.959,31.656 66.812,33.5 C68.273,36.659 69.186,43 68.18,43 C67.679,43 66.084,42.067 64.635,40.927 C63.186,39.788 62,39.249 62,39.731 C62,41.031 68.403,47 69.798,47 C70.459,47 71,47.675 71,48.5 C71,49.325 70.785,50 70.521,50 C70.258,50 66.959,47.75 63.19,45 C59.421,42.25 56.01,40 55.611,40 C55.212,40 57.625,42.536 60.974,45.636 C64.322,48.736 66.887,51.446 66.674,51.659 C66.461,51.872 64.31,50.917 61.893,49.535 C57.008,46.743 54.561,46.171 57.559,48.523 C59.361,49.936 59.214,49.999 55.5,49.392 C49.201,48.365 42.943,45.704 33.716,40.13 C22.817,33.547 19.049,32 13.918,32 C9.145,32 2.321,35.414 1.42,38.253 C0.642,40.702 0.992,40.989 6.172,42.138 C15.378,44.181 20.944,50.106 27.997,65.372 C31.548,73.058 32.255,73.905 38.766,78.273 C48.171,84.583 50.336,85.301 57.75,84.565 C63.648,83.979 66.12,84.973 62.357,86.417 C61.453,86.763 61.005,87.338 61.361,87.694 C61.717,88.05 63.115,87.301 64.469,86.029 L66.93,83.717 L68.715,86.833 C70.355,89.696 71.9,90.763 79,93.931 C81.123,94.878 80.708,94.975 76.25,94.57 C71.093,94.103 71,94.142 71.006,96.797 C71.017,102.41 73.037,106.927 76.788,109.731 C78.826,111.254 84.693,115.953 89.827,120.174 C101.522,129.79 104.056,131 112.5,131 C120.927,131 123.28,129.873 135.056,120.195 C140.25,115.927 146.013,111.37 147.863,110.069 C151.689,107.377 154,102.674 154,97.579 L154,94.094 L149,94.686 C143.027,95.394 142.448,94.495 147.927,93.02 C151.526,92.051 156.136,87.985 157.262,84.787 C157.611,83.796 158.436,83.914 160.845,85.299 C162.958,86.514 163.814,86.676 163.48,85.799 C163.121,84.858 164.195,84.494 167.38,84.477 C170.995,84.458 173.139,83.537 179.454,79.288 C183.678,76.447 187.468,73.982 187.876,73.811 C188.285,73.64 190.725,69.521 193.299,64.658 C195.872,59.795 199.389,54.034 201.113,51.857 C204.701,47.327 213.285,42.023 217.05,42.009 C220.456,41.997 222.18,40.204 220.966,37.936 C219.141,34.527 213.561,31.999 207.882,32.01 C201.902,32.021 196.606,34.142 184.775,41.265 C174.811,47.263 165.801,50.749 167.542,47.932 C167.905,47.344 165.907,48.027 163.101,49.449 C160.295,50.87 158,51.614 158,51.101 C158,50.588 160.813,47.586 164.25,44.431 C170.917,38.312 170.645,38.26 162,44 C154.432,49.025 154,49.249 154,48.158 C154,47.63 155.463,46.32 157.25,45.248 C159.037,44.176 161.373,41.769 162.44,39.899 L164.381,36.5 L160.656,39.75 C158.607,41.538 156.716,43 156.453,43 C155.726,43 157.144,34.752 158.237,32.629 C158.916,31.309 158.873,30.96 158.09,31.444 C157.48,31.821 156.147,33.756 155.127,35.744 L153.273,39.358 L152.024,35.429 C150.323,30.075 142.881,18.195 138.823,14.355 C133.774,9.576 125.025,4.382 119.021,2.599 C116.06,1.72 113.381,1.049 113.068,1.11 C112.756,1.17 110.579,1.598 108.232,2.06 M103.687,5.916 C89.779,11.517 76.415,28.261 74.489,42.5 L73.812,47.5 L76.366,43.862 C79.149,39.897 83.238,38 89,38 C91.036,38 94.682,36.969 97.101,35.709 C101.02,33.667 102.809,33.429 113.5,33.529 C123.811,33.626 126.061,33.948 129.485,35.821 C131.677,37.019 135.135,38 137.17,38 C142.255,38 146.069,39.563 148.842,42.782 L151.184,45.5 L150.523,41.5 C148.959,32.025 140.889,19.608 131.846,12.761 C121.188,4.692 112.171,2.5 103.687,5.916 M8.352,34.993 C4.316,36.622 5.189,37.5 10.845,37.501 C19.648,37.502 26.254,41.144 36.726,51.771 C43.82,58.97 46.608,61.089 51.288,62.837 C57.135,65.022 68.008,65.944 65,64 C64.175,63.467 62.375,62.962 61,62.879 L58.5,62.728 L61,62.212 C63.118,61.775 62.659,61.428 58,59.94 L52.5,58.182 L57.5,58.674 C61.417,59.059 62.175,58.914 61,58.008 C59.817,57.095 60.294,56.982 63.25,57.47 C65.322,57.813 67,57.678 67,57.168 C67,55.242 63.824,53.784 54.718,51.529 C44.918,49.102 39.418,46.725 32.259,41.821 C22.449,35.101 14.038,32.699 8.352,34.993 M197.5,36.839 C194.2,38.462 188.027,41.796 183.782,44.248 C179.537,46.7 173.462,49.474 170.282,50.412 C162.512,52.705 158,54.752 158,55.984 C158,57.306 160.556,57.281 163.316,55.933 C165.223,55.001 165.183,55.138 163,57.014 L160.5,59.162 L164,58.666 C165.925,58.393 168.361,57.83 169.414,57.415 C170.695,56.91 171.104,57.022 170.653,57.753 C170.281,58.354 168.52,59.182 166.739,59.593 C163.551,60.327 163.539,60.35 166,61.07 C168.434,61.781 168.42,61.804 165.5,61.936 C163.85,62.01 161.375,62.757 160,63.595 C157.582,65.068 157.656,65.101 162.253,64.578 C169.482,63.756 174.722,60.546 183.5,51.563 C192.605,42.245 200.173,37.899 208.495,37.209 C214.261,36.731 217.017,38.476 212.291,39.613 C204.053,41.594 198.848,46.222 194.049,55.834 C190.566,62.811 184.571,69.866 179.424,73.047 C177.591,74.18 173.258,75.7 169.795,76.425 L163.5,77.743 L167,78.868 C170.422,79.968 170.43,79.983 167.367,79.545 C165.643,79.298 163.007,78.789 161.509,78.413 C159.009,77.785 158.874,77.896 159.871,79.759 C160.469,80.876 162.322,82.265 163.99,82.847 C168.041,84.259 172.637,82.585 181.264,76.554 C187.325,72.317 188.434,70.976 192.675,62.766 C198.429,51.625 205.927,43.64 212.224,41.945 C220.715,39.661 220.724,39.652 217.008,37.005 C211.76,33.268 204.88,33.21 197.5,36.839 M98.792,36.637 C98.015,37.414 94.481,38.5 90.939,39.05 C81.993,40.439 79.517,41.626 77.412,45.533 C75.197,49.647 75.88,50.617 79.657,48.717 C86.32,45.363 94.022,45.87 99.283,50.008 C101.297,51.592 103.988,52.141 112.219,52.644 L122.611,53.28 L126.056,50.291 C127.95,48.646 130.73,47.002 132.232,46.636 C136.295,45.647 142.677,46.97 146.564,49.608 C149.812,51.812 150,51.835 150,50.017 C150,43.996 145.362,40.269 136.696,39.329 C133.838,39.019 130.118,37.981 128.429,37.022 C124.337,34.699 101.032,34.396 98.792,36.637 M3.5,40 C3.84,40.55 5.074,41 6.243,41 C9.701,41 16.685,44.877 19.973,48.622 C21.656,50.539 25.256,56.716 27.973,62.347 C32.697,72.142 33.206,72.785 39.706,77.16 C48.119,82.825 50.797,83.635 59,83.002 C64.898,82.546 65.531,82.281 65.834,80.139 C66.066,78.502 65.8,78.006 64.966,78.521 C63.518,79.416 57,80.951 57,80.398 C57,80.182 58.463,79.366 60.25,78.584 L63.5,77.163 L57.365,77.082 C43.094,76.892 33.928,70.574 25.65,55.223 C22.983,50.276 19.573,45.321 18.074,44.213 C13.492,40.825 1.948,37.488 3.5,40 M81.5,58.351 C76.195,60.824 72.547,64.035 75.128,63.96 C75.882,63.938 78.975,62.589 82,60.961 C85.025,59.332 88.527,58 89.782,58 C92.423,58 99.549,60.784 98.807,61.526 C98.532,61.801 96.624,61.323 94.568,60.464 C91.506,59.185 90.164,59.114 87.164,60.072 C85.149,60.715 83.05,61.703 82.5,62.268 C81.819,62.967 82.139,63.039 83.5,62.495 C87.928,60.724 91.784,60.849 95.79,62.893 C98.031,64.036 100.16,65.45 100.522,66.036 C100.884,66.621 99.459,66.178 97.355,65.05 C92.51,62.453 86.526,62.434 81.739,65 C76.952,67.565 75.821,67.518 79,64.885 C81.025,63.207 81.12,62.948 79.5,63.52 C78.4,63.909 76.824,64.424 75.999,64.665 C73.791,65.309 69.105,79.053 70.14,81.849 C71.178,84.655 78.272,87.949 83.338,87.978 L87.176,88 L86.542,92.25 L85.909,96.5 L88.204,93.511 C89.467,91.866 92.69,87.886 95.366,84.665 C100.028,79.055 100.385,78.835 103.866,79.443 C113.034,81.043 115.105,81.12 118.52,79.993 C121.947,78.862 122.355,78.963 125.187,81.644 C129.277,85.516 137.393,96.94 136.61,97.723 C135.694,98.639 130.522,93.405 126.331,87.319 L122.704,82.053 L119.197,85.132 C114.611,89.159 110.259,88.635 104.911,83.413 L101.165,79.756 L99.13,83.746 C98.01,85.94 94.778,90.27 91.947,93.368 C87.638,98.083 87.137,99 88.875,99 C90.017,99 92.299,98.181 93.946,97.179 C95.885,96 98.359,95.471 100.97,95.677 C103.596,95.885 105,95.582 105,94.807 C105,94.148 105.557,94.365 106.25,95.295 C108.716,98.602 117.591,98.098 120.235,94.5 C120.698,93.87 120.975,93.938 120.985,94.683 C120.993,95.347 122.317,95.829 124,95.781 C125.65,95.734 127,95.274 127,94.759 C127,94.244 128.385,94.987 130.077,96.411 C136.425,101.753 140.999,98.389 138.025,90.565 C137.074,88.064 137.155,87.999 141.275,87.978 C146.733,87.95 153.79,84.742 154.881,81.793 C155.482,80.169 154.986,77.441 153.172,72.399 C151.043,66.478 150.118,65.106 147.624,64.164 C143.561,62.631 143.089,63.478 146.907,65.452 C150.089,67.097 151.165,68.384 148.506,67.364 C147.685,67.049 145.34,65.938 143.295,64.895 C138.456,62.429 132.425,62.488 127.645,65.05 C125.541,66.178 124.116,66.621 124.478,66.036 C124.84,65.45 126.969,64.036 129.21,62.893 C133.227,60.843 137.231,60.72 141.414,62.518 C142.752,63.092 143.116,62.996 142.622,62.197 C142.233,61.569 140.151,60.579 137.994,59.998 C134.895,59.164 133.3,59.266 130.383,60.484 C128.353,61.332 126.468,61.801 126.193,61.526 C125.435,60.768 132.604,58 135.327,58 C136.642,58 140.248,59.35 143.34,61 C149.987,64.547 152.057,64.84 149.405,61.859 C146.759,58.884 140.196,56.048 135.9,56.021888 C131.563,55.996 124.826,60.503 122.51,64.98 C120.61,68.655 119.321,68.798 117.818,65.5 C116.889,63.461 115.966,63 112.815,63 C109.613,63 108.788,63.429 108,65.5 C106.785,68.695 105.267,68.681 103.8,65.461 C103.158,64.052 102.07,63.143 101.354,63.418 C100.644,63.69 99.755,63.413 99.378,62.802 C98.962,62.129 99.146,61.972 99.845,62.405 C100.48,62.797 101,62.869 101,62.565 C101,62.261 99.132,60.66 96.85,59.006 C91.816,55.36 88.242,55.207 81.5,58.351 M108.5,58 C108.129,58.6 109.607,59.064 112.191,59.16 C116.236,59.31 116.286,59.345 113,59.731 C107.202,60.413 107.04,62 112.769,62 C117.27,62 117.854,61.774 117.292,60.25 C116.936,59.287 116.163,58.169 115.573,57.765 C113.994,56.684 109.215,56.843 108.5,58 M66.083,62.365 C66.313,62.565 67.513,63.256 68.75,63.9 C70.615,64.87 71,64.807 71,63.535 C71,62.539 70.064,62 68.333,62 C66.867,62 65.854,62.164 66.083,62.365 M104.736,63.598 C103.934,64.399 104.983,67 106.107,67 C106.598,67 107,66.1 107,65 C107,63.051 105.939,62.394 104.736,63.598 M119,64.941 C119,66.073 119.45,67 120,67 C120.55,67 121,66.352 121,65.559 C121,64.766 120.55,63.84 120,63.5 C119.45,63.16 119,63.809 119,64.941 M83.5,66.902 C82.4,67.398 80.243,68.295 78.706,68.894 L75.912,69.984 L79.206,72.845 C85.838,78.606 90.181,79.406 95.901,75.919 C97.772,74.779 100.118,74.059 101.114,74.32 C102.111,74.58 103.506,74.095 104.213,73.242 C105.482,71.712 111.03,69 112.891,69 C113.417,69 115.202,70.141 116.859,71.535 C119.017,73.351 120.557,73.898 122.287,73.464 C123.961,73.044 125.865,73.647 128.491,75.429 C134.084,79.225 140.927,78.408 145.038,73.454 C145.804,72.531 147.298,71.455 148.358,71.063 C149.872,70.503 148.963,69.856 144.11,68.041 C139.139,66.182 136.85,65.86 132.363,66.387 C129.298,66.747 125.825,67.568 124.645,68.21 C122.639,69.303 122.791,69.467 127,70.756 C129.971,71.665 133.816,71.936 138.317,71.553 C145.854,70.912 146.65,72.209 139.845,74.042 C135.414,75.235 129.901,74.638 126.057,72.55 C124.278,71.584 123.152,71.512 121.911,72.288 C120.568,73.126 119.533,72.785 117.027,70.676 C115.278,69.204 113.417,68 112.891,68 C110.97,68 105.463,70.735 104.117,72.357 C103.188,73.478 102.353,73.708 101.571,73.059 C100.808,72.426 98.878,72.621 95.964,73.624 C91.013,75.33 84.455,74.818 81.385,72.486 C79.713,71.216 80.348,71.117 87,71.609 C92.214,71.995 95.713,71.73 98.478,70.739 C102.323,69.362 102.381,69.274 100.222,68.119 C97.311,66.561 86.067,65.743 83.5,66.902 M156,66.709 C156,68.183 163.852,72.187 165.762,71.687 C167.215,71.307 167.172,71.21 165.5,71.101 C164.4,71.028 162.854,70.561 162.065,70.061 C160.973,69.37 161.451,68.917 164.065,68.167 L167.5,67.18 L163.332,67.09 C161.039,67.041 158.452,66.727 157.582,66.393 C156.712,66.059 156,66.201 156,66.709 M63,68.223 L66.5,69.266 L63.5,70.588 C61.542,71.451 61.125,71.925 62.3,71.955 C64.902,72.02 70.17,69.084 69.474,67.957 C69.148,67.431 66.771,67.041 64.191,67.09 L59.5,67.18 L63,68.223 M77.928,78.353 C84.209,84.966 90.953,85.293 97.222,79.288 C100.74,75.917 100.859,74.179 97.384,76.912 C95.946,78.044 93.133,79.423 91.134,79.976 C87.987,80.848 86.765,80.616 82.012,78.241 C74.22,74.349 74.126,74.351 77.928,78.353 M125,75.783 C125,77.341 130.527,81.939 133.749,83.062 C138.051,84.562 142.67,82.968 147.018,78.481 C148.874,76.567 150.125,75 149.798,75 C149.471,75 146.713,76.31 143.671,77.91 C138.989,80.373 137.565,80.691 134.408,79.979 C132.356,79.517 129.4,78.193 127.839,77.039 C126.278,75.885 125,75.319 125,75.783 M75.438,98.332 C75.747,99.339 76,100.786 76,101.547 C76,104.539 82.103,110.167 101.65,125.201 C109.117,130.944 118.558,129.669 127.595,121.699 C130.214,119.389 135.953,114.8 140.349,111.5 C150.046,104.222 152.683,101.012 151.142,98.361 C150.167,96.684 150.058,96.759 150.03,99.128 C150.014,100.573 149.325,102.315 148.5,103 C147.228,104.056 146.988,103.809 146.923,101.372 C146.853,98.737 146.749,98.823 145.664,102.42 C144.407,106.586 142.067,108.397 141.9,105.333 C141.829,104.017 141.61,104.184 141.123,105.926 C140.216,109.17 138.261,109.675 137.713,106.808 C137.293,104.607 137.266,104.618 137.136,107.05 C136.901,111.459 133.098,113.872 132.882,109.75 C132.787,107.954 132.636,108.088 132.132,110.418 C131.397,113.813 129.378,114.923 128.7,112.305 C128.377,111.059 128.196,111.304 128.116,113.095 C127.989,115.927 124.057,120.446 123.93,117.905 C123.877,116.849 123.691,116.894 123.18,118.086 C122.806,118.958 120.866,121.095 118.868,122.836 C115.038,126.172 109.796,127.11 108.3,124.726 C107.86,124.025 106.263,122.665 104.75,121.703 C102.917,120.537 101.967,119.045 101.9,117.227 C101.805,114.612 101.774,114.596 101.142,116.845 L100.483,119.191 L98.586,117.095 C97.543,115.943 96.122,115 95.428,115 C94.734,115 93.715,113.762 93.162,112.25 C92.489,110.408 92.132,110.097 92.079,111.309 C91.97,113.812 90.095,112.431 88.44,108.63 C87.192,105.762 87.075,105.701 87.039,107.905 C87.002,110.213 86.923,110.24 85.08,108.572 C84.024,107.616 82.682,105.184 82.098,103.167 L81.036,99.5 L81.484,103.431 C81.874,106.843 81.744,107.172 80.5,105.929 C79.712,105.141 78.124,102.697 76.971,100.498 C75.819,98.299 75.128,97.324 75.438,98.332 M96.475,103.246 C97.209,103.657 100.634,104.716 104.087,105.601 C111.13,107.405 117.55,106.96 123.997,104.219 L128.04,102.5 L111.591,102.5 C102.544,102.5 95.742,102.836 96.475,103.246" id="Shape" fill-opacity="0.652"></path>
            <path d="M104.5,3.389 C97.919,5.651 94.301,7.873 88.325,13.323 C81.851,19.228 75.517,28.441 73.82,34.423 C72.23,40.026 71.26,40.815 70.009,37.524 C68.523,33.616 67.933,34.771 69,39.5 C69.489,41.669 69.684,43.65 69.432,43.901 C69.181,44.152 67.631,43.364 65.988,42.149 C64.344,40.934 63,40.364 63,40.881 C63,42.012 68.768,47 70.077,47 C70.585,47 71,47.675 71,48.5 C71,50.75 69.75,50.353 64.704,46.5 C58.678,41.899 57.44,42.008 62.79,46.668 C67.593,50.852 68.733,54.182 64.387,51.334 C62.887,50.351 60.219,49.714 58.121,49.838 C52.953,50.143 44.262,46.896 34.566,41.04 C18.988,31.63 13.727,30.252 7.051,33.833 C3.001,36.005 0.344,39.477 1.966,40.479 C2.562,40.847 2.926,40.597 2.775,39.923 C2.624,39.248 4.029,37.64 5.898,36.348 C12.274,31.942 20.378,33.415 31.5,41.002 C40.044,46.831 49.778,50.714 60.218,52.458 C65.707,53.374 69.649,58 64.941,58 C63.809,58 63.139,58.416 63.453,58.924 C63.767,59.433 63.231,60.022 62.262,60.233 C61.293,60.445 63.113,60.965 66.307,61.388 C70.062,61.886 71.967,62.572 71.699,63.329 C71.245,64.611 69.544,64.648 66.586,63.441 C65.143,62.852 64.872,62.983 65.485,63.975 C66.137,65.03 64.921,65.192 59.326,64.791 C51.176,64.208 45.126,61.163 39.237,54.681 C32.056,46.777 28.735,43.9 24.135,41.595 C16.731,37.886 12.222,36.733 8.185,37.519 L4.5,38.236 L9.478,39.715 C17.183,42.003 21.309,45.948 26.707,56.186 C34.407,70.79 42.39,76.256 56.249,76.413 C64.458,76.505 65.73,77.145 61.25,78.928 C59.737,79.53 59.4,79.843 60.5,79.625 C61.6,79.406 63.287,78.903 64.25,78.506 C65.653,77.929 66,78.302 66,80.393 C66,82.768 65.622,83.014 61.75,83.16 C57.94,83.304 57.845,83.362 60.83,83.729 C63.413,84.047 64.021,84.503 63.537,85.763 C62.982,87.21 63.118,87.203 64.786,85.694 C67.282,83.434 67.878,83.548 69,86.5 C70.095,89.38 75.481,92.991 78.691,92.996 C82.118,93.002 82.472,94.956 79.166,95.617 C76.385,96.173 76.255,96.404 77.088,99.308 C77.577,101.011 78.702,103.101 79.589,103.953 C81.061,105.366 81.144,105.227 80.542,102.345 C80.154,100.486 80.318,98.922 80.941,98.536 C81.547,98.162 82,98.711 82,99.819 C82,102.429 84.805,109 85.92,109 C86.411,109 86.591,108.151 86.319,107.113 C86.048,106.075 86.266,104.954 86.803,104.622 C87.341,104.289 88.067,105.543 88.417,107.408 C88.767,109.273 89.716,111.349 90.526,112.022 C91.765,113.05 92.012,112.786 92.076,110.372 L92.152,107.5 L93.326,110.678 C94.813,114.704 95.989,115.891 96.039,113.417 C96.065,112.157 96.617,112.7 97.649,115 L99.221,118.5 L100.534,115 L101.848,111.5 L101.924,115.179 C102.003,119.008 103.669,121.443 106.914,122.473 C107.959,122.805 109.068,123.734 109.376,124.538 C110.323,127.005 114.447,126.168 118.318,122.725 C121.167,120.19 122.018,118.663 122.081,115.975 L122.162,112.5 L123.344,115.16 C124.366,117.458 124.762,117.647 126.263,116.55 C127.291,115.798 128.026,113.895 128.063,111.89 C128.12,108.855 128.221,108.735 129.031,110.75 C130.541,114.507 132.338,113.488 131.677,109.25 C131.146,105.848 131.223,105.675 132.51,107.392 C133.29,108.432 134.107,109.782 134.327,110.392 C134.991,112.234 135.923,110.596 136.188,107.122 C136.515,102.828 138,101.96 138,106.063 C138,108.778 138.22,109.062 139.5,108 C140.325,107.315 141,105.91 141,104.878 C141,103.845 141.45,103 142,103 C142.55,103 143,103.702 143,104.559 C143,107.59 145.004,104.83 145.625,100.943 C145.972,98.774 146.707,97 147.259,97 C147.851,97 148.024,98.467 147.681,100.581 C147.186,103.631 147.314,103.984 148.55,102.959 C149.347,102.297 150,100.205 150,98.31 C150,95.407 149.707,94.958 148.141,95.455 C145.873,96.175 142.803,95.128 143.565,93.895 C143.869,93.403 145.104,92.998 146.309,92.996 C149.569,92.991 154.912,89.363 156.043,86.386 C156.824,84.333 157.554,83.873 159.454,84.236 C160.783,84.49 162.462,84.323 163.185,83.864 C164.077,83.299 164.121,83.026 163.321,83.015 C161.636,82.993 159,80.13 159,78.322 C159,77.258 159.538,77.002 160.75,77.489 C164.609,79.039 165.584,79.249 164.143,78.219 C162.396,76.971 163.536,76.423 168.5,76.126 C174.315,75.779 182.353,71.542 186.815,66.473 C188.952,64.045 192.308,58.72 194.272,54.64 C198.306,46.258 202.265,42.619 210.311,39.895 C215.171,38.249 215.305,38.115 212.722,37.466 C206.52,35.91 193.811,41.272 187.354,48.169 C175.771,60.542 169.164,64.969 162.25,64.99 C156.464,65.008 158.813,66.997 164.75,67.107 L170.5,67.214 L166,68.262 L161.5,69.311 L167,71.057 C170.694,72.23 171.679,72.834 170,72.896 C166.299,73.033 160.839,71.251 158,68.979 L155.5,66.978 L158.306,64.489 C159.849,63.12 162.324,61.948 163.806,61.884 C165.751,61.8 165.973,61.633 164.605,61.283 C163.058,60.887 162.966,60.617 164.105,59.818 C165.096,59.122 164.704,59.012 162.75,59.438 C160.011,60.036 158.872,58.657 161.25,57.623 C161.938,57.324 161.262,57.335 159.75,57.648 C158.154,57.978 157,57.782 157,57.181 C157,55.82 161.889,52 163.631,52 C166.847,52 178.115,47.305 185.815,42.757 C198.014,35.552 201.82,34.047 207.906,34.022 C212.189,34.005 214.01,34.533 216.674,36.565 C218.524,37.976 219.777,39.551 219.46,40.065 C219.142,40.579 219.359,41 219.941,41 C221.156,41 221.316,39.03 220.235,37.376 C219.831,36.758 217.925,35.297 216,34.13 C209.504,30.191 200.563,31.939 188.5,39.505 C179.991,44.842 170.537,49.085 166.285,49.474 C164.049,49.679 161.29,50.426 160.155,51.135 C156.091,53.673 156.63,50.805 160.943,46.94 C166.174,42.252 165.544,41.841 159.5,46 C154.517,49.428 154,49.569 154,47.5 C154,46.675 154.591,46 155.313,46 C156.035,46 157.948,44.577 159.563,42.837 C162.169,40.031 162.221,39.862 160.027,41.337 C156.457,43.739 154.703,43.507 155.587,40.75 C156.759,37.098 157.82,32 157.408,32 C157.198,32 156.355,33.607 155.534,35.572 C153.879,39.534 152.565,39.431 151.55,35.259 C150.279,30.041 143.077,19.287 137.243,13.897 C126.491,3.965 114.252,0.037 104.5,3.389 M103.953,5.303 C89.408,10.724 73.989,31.114 74.0039891,44.909 L74.007,48.5 L75.918,45.367 C78.078,41.825 81.698,38.981 83.973,39.039 C84.813,39.061 84.129,39.676 82.452,40.406 C79.013,41.904 76,45.91 76,48.985 L76,51.041 L79.96,49.02 C82.487,47.731 85.876,47 89.323,47 C93.82,47 95.358,47.503 98.5,50 C102.121,52.878 102.679,53 112.187,53 C122.223,53 126.122,51.968 128.945,48.566 C131.041,46.041 139.727,46.526 145.581,49.496 C148.286,50.869 150.661,51.994 150.858,51.996 C151.596,52.004 149.808,46.413 148.357,44.17 C147.528,42.888 145.421,41.219 143.675,40.459 C141.886,39.681 141.249,39.061 142.215,39.039 C143.159,39.018 145.536,40.41 147.499,42.133 C149.461,43.856 151.224,45.094 151.416,44.883 C151.608,44.672 151.156,42.155 150.413,39.289 C145.932,22.018 127.864,5.114 113,4.287 C109.975,4.118 105.904,4.575 103.953,5.303 M98.5,35.474 C93.292,38.682 94.582,38.698 100.596,35.5 C103.182,34.125 104.668,33.002 103.899,33.004994 C103.13,33.008 100.7,34.119 98.5,35.474 M120.75,33.662 C121.438,33.94 122.563,33.94 123.25,33.662 C123.938,33.385 123.375,33.158 122,33.158 C120.625,33.158 120.063,33.385 120.75,33.662 M108.269,34.693 C109.242,34.947 110.592,34.93 111.269,34.656 C111.946,34.382 111.15,34.175 109.5,34.195 C107.85,34.215 107.296,34.439 108.269,34.693 M115.75,34.662 C116.438,34.94 117.563,34.94 118.25,34.662 C118.938,34.385 118.375,34.158 117,34.158 C115.625,34.158 115.063,34.385 115.75,34.662 M126.861,35.924 C128.159,37.066 129.959,37.997 130.861,37.9940072 C132.342,37.988 131.482,37.398 125.753,34.485 C125.064,34.134 125.562,34.782 126.861,35.924 M88.25,38.689 C89.213,38.941 90.787,38.941 91.75,38.689 C92.713,38.438 91.925,38.232 90,38.232 C88.075,38.232 87.287,38.438 88.25,38.689 M134.25,38.689 C135.213,38.941 136.787,38.941 137.75,38.689 C138.713,38.438 137.925,38.232 136,38.232 C134.075,38.232 133.287,38.438 134.25,38.689 M4.75,41.662 C5.438,41.94 6.563,41.94 7.25,41.662 C7.938,41.385 7.375,41.158 6,41.158 C4.625,41.158 4.063,41.385 4.75,41.662 M215.813,41.683 C216.534,41.972 217.397,41.936 217.729,41.604 C218.061,41.272 217.471,41.036 216.417,41.079 C215.252,41.127 215.015,41.364 215.813,41.683 M11.5,43.655 C13.15,44.521 16.299,46.866 18.499,48.865 L22.497,52.5 L18.999,48.665 C15.733,45.085 11.14,41.948 9.3,42.04 C8.86,42.062 9.85,42.789 11.5,43.655 M208.507,43.989 C208.157,44.555 208.558,44.723 209.448,44.382 C211.18,43.717 211.497,43 210.059,43 C209.541,43 208.843,43.445 208.507,43.989 M201.521,50.187 C197.212,54.98 193.275,61 194.449,61 C194.724,61 195.603,59.734 196.403,58.187 C197.203,56.64 199.956,53.04 202.521,50.187 C205.087,47.334 206.96,45 206.685,45 C206.41,45 204.087,47.334 201.521,50.187 M80.929,57.976 C78.964,59.015 76.76,60.585 76.029,61.465 C74.764,62.989 70.539,73.907 69.32,78.801 C68.218,83.229 74.628,87.62 83.098,88.238 C86.666,88.498 86.692,88.533 86.269,92.5 C85.999,95.04 86.375,97.21 87.3,98.444 C88.72,100.339 88.83,100.342 91.552,98.558 C93.723,97.136 95.98,96.778 101.673,96.955 C116.434,97.412 125.791,96.959 127.75,95.691 C128.439,95.245 129,95.306 129,95.827 C129,97.032 135.959,100.374 136.773,99.56 C137.109,99.224 135.226,96.823 132.589,94.225 C129.952,91.626 126.658,87.561 125.268,85.192 L122.742,80.884 L120.121,83.841 C115.394,89.172 110.059,88.664 104.182,82.322 C100.51,78.358 100.442,78.372 109.674,81.127 C113.311,82.212 114.373,82.135 117.935,80.529 L122.023,78.686 L126.08,83.093 C128.312,85.517 131.746,89.863 133.711,92.75 C135.676,95.637 137.728,98 138.272,98 C138.85,98 139.052,96.154 138.759,93.551 C138.279,89.294 138.381,89.079 141.129,88.551 C142.708,88.248 145.361,87.737 147.024,87.415 C150.918,86.662 156,82.386 156,79.861 C156,78.783 155.253,76.461 154.341,74.7 C153.428,72.94 152.181,69.25 151.57,66.5 C150.557,61.939 150.022,61.26 145.48,58.773 C138.166,54.769 132.892,55.029 126.51,59.709 C123.765,61.722 120.534,63.411 119.329,63.464 C117.478,63.545 117.22,63.149 117.668,60.912 C118.118,58.658 117.747,58.107 115.167,57.208 C110.237,55.49 108.003,56.628 107.985,60.867 C107.973,63.534 107.719,64.103 107.026,63.008 C106.304,61.867 105.808,61.792 104.909,62.691 C104.01,63.59 102.514,62.943 98.527,59.932 C94.251,56.705 92.528,56.008 88.909,56.044 C86.484,56.069 82.893,56.938 80.929,57.976 M89.269,58.693 C90.242,58.947 91.592,58.93 92.269,58.656 C92.946,58.382 92.15,58.175 90.5,58.195 C88.85,58.215 88.296,58.439 89.269,58.693 M133.269,58.693 C134.242,58.947 135.592,58.93 136.269,58.656 C136.946,58.382 136.15,58.175 134.5,58.195 C132.85,58.215 132.296,58.439 133.269,58.693 M57.813,59.683 C58.534,59.972 59.397,59.936 59.729,59.604 C60.061,59.272 59.471,59.036 58.417,59.079 C57.252,59.127 57.015,59.364 57.813,59.683 M82.75,60.572 C78.873,62.675 79.312,63.401 83.25,61.399 C87.02,59.481 87.687,58.985 86.417,59.04 C85.912,59.062 84.263,59.751 82.75,60.572 M138.083,59.373 C139.112,60.294 145,62.999 145,62.551 C145,61.975 139.456,59 138.383,59 C137.989,59 137.854,59.168 138.083,59.373 M26.564,61.293 C26.94,62.279 27.499,62.834 27.807,62.526 C28.115,62.219 27.808,61.412 27.124,60.733 C26.136,59.753 26.022,59.868 26.564,61.293 M85.25,61.985 C81.875,63.411 82.542,64.056 86.107,62.813 C88.34,62.035 90.211,62.036 92.76,62.818 C94.909,63.478 95.917,63.517 95.317,62.917 C93.852,61.452 87.83,60.894 85.25,61.985 M132,62.014 C130.945,62.706 131.538,62.807 134,62.355 C138.313,61.564 139.126,60.995 135.917,61.015 C134.588,61.024 132.825,61.473 132,62.014 M139.083,62.373 C140.112,63.294 146,65.999 146,65.551 C146,64.975 140.456,62 139.383,62 C138.989,62 138.854,62.168 139.083,62.373 M191.954,64.086 C191.34,65.233 191.026,66.36 191.257,66.59 C191.487,66.82 192.189,65.882 192.816,64.504 C194.194,61.48 193.523,61.154 191.954,64.086 M82.25,67.662 C79.912,68.49 78,69.781 78,70.532 C78,72.267 83.699,76.549 87.061,77.34 C90.324,78.108 96.378,76.458 98.142,74.319 C99.365,72.836 99.283,72.788 97.316,73.836 C94.302,75.442 86.641,75.295 82.468,73.551 C77.234,71.364 78.27,70.643 85.651,71.332 C92.134,71.937 101,70.581 101,68.984 C101,68.29 89.731,65.88 87.418,66.079 C86.913,66.122 84.588,66.835 82.25,67.662 M129.25,67.195 C126.363,67.722 124,68.515 124,68.958 C124,70.578 132.819,71.942 139.349,71.332 C146.73,70.643 147.766,71.364 142.532,73.551 C138.531,75.223 132.274,75.435 128.565,74.025 C124.204,72.367 125.741,73.998 130.54,76.121 C135.611,78.364 139.532,77.729 144.438,73.87 C148.142,70.957 147.617,69.398 142.322,67.594 C137.156,65.834 136.777,65.822 129.25,67.195 M29.564,68.293 C29.94,69.279 30.499,69.834 30.807,69.526 C31.115,69.219 30.808,68.412 30.124,67.733 C29.136,66.753 29.022,66.868 29.564,68.293 M62,68.436 L66.5,69.676 L60.5,71.07 C54.664,72.426 54.604,72.473 58.291,72.795 C62.296,73.144 69.095,70.454 69.779,68.25 C70.063,67.334 68.474,67.026 63.833,67.098 L57.5,67.196 L62,68.436 M188.5,71 C187.647,72.65 187.174,74 187.449,74 C187.724,74 188.647,72.65 189.5,71 C190.353,69.35 190.826,68 190.551,68 C190.276,68 189.353,69.35 188.5,71 M31,71.941 C31,72.459 31.445,73.157 31.989,73.493 C32.555,73.843 32.723,73.442 32.382,72.552 C31.717,70.82 31,70.503 31,71.941 M34,74.35 C34,74.581 35.18,75.543 36.623,76.489 C38.066,77.434 38.941,77.713 38.567,77.109 C37.854,75.955 34,73.626 34,74.35 M182.861,76.059 L180.5,78.119 L183.25,76.444 C184.762,75.523 186,74.597 186,74.385 C186,73.604 185.165,74.05 182.861,76.059 M144.049,78.078 C138.779,81.538 136.734,81.672 130.439,78.974 C126.631,77.342 125.969,77.257 127.033,78.54 C130.701,82.96 138.59,84.291 143.054,81.243 C146.093,79.169 150.315,74.967 149.25,75.078 C148.838,75.121 146.497,76.471 144.049,78.078 M77.668,77.577 C78.538,79.843 84.504,83 87.918,83 C91.57,83 95.697,81.097 98.311,78.209 C99.938,76.411 99.648,76.45 95.389,78.606 C89.462,81.607 86.596,81.603 81.319,78.585 C78.621,77.042 77.325,76.685 77.668,77.577 M40,78.35 C40,78.581 41.18,79.543 42.623,80.489 C44.066,81.434 44.941,81.713 44.567,81.109 C43.854,79.955 40,77.626 40,78.35 M176.861,80.059 L174.5,82.119 L177.25,80.444 C178.762,79.523 180,78.597 180,78.385 C180,77.604 179.165,78.05 176.861,80.059 M94.878,85.832 C89.912,91.402 86.402,97 87.877,97 C89.545,97 100.685,82.351 99.737,81.403 C99.472,81.139 97.285,83.132 94.878,85.832 M47,83 C47.825,83.533 49.175,83.945 50,83.914 C50.989,83.878 50.819,83.567 49.5,83 C46.751,81.819 45.172,81.819 47,83 M171,83 C170.175,83.533 169.95,83.969 170.5,83.969 C171.05,83.969 172.175,83.533 173,83 C173.825,82.467 174.05,82.031 173.5,82.031 C172.95,82.031 171.825,82.467 171,83 M71.493,98.803 C72.221,103.658 74.488,109 75.82,109 C76.243,109 82.194,113.505 89.044,119.012 C101.646,129.14 105.266,130.989 112.5,130.989 C119.672,130.989 123.329,129.167 135.026,119.765 C141.366,114.669 147.572,109.825 148.817,109 C152.518,106.548 156.104,93.132 152.76,94.247 C152.01,94.497 151.638,96.023 151.819,98.116 C152.062,100.944 151.463,102.246 148.523,105.273 C146.547,107.308 142.326,110.742 139.143,112.903 C135.96,115.064 131.364,118.665 128.928,120.905 C123.239,126.137 117.393,129.003 112.434,128.99 C108.477,128.98 98.835,125.161 97.56,123.098 C97.184,122.488 92.589,118.577 87.35,114.406 C77.816,106.816 75,102.995 75,97.649 C75,96.035 74.302,95.051 72.896,94.683 C70.912,94.164 70.833,94.398 71.493,98.803 M122.5,102.111 C120.3,102.595 112.875,102.726 106,102.402 C98.139,102.032 93.871,102.164 94.5,102.758 C96.235,104.397 107.421,107 112.727,107 C117.838,107 129,103.475 129,101.861 C129,100.863 127.989,100.902 122.5,102.111" id="Shape" fill-opacity="0.963"></path>
        </g>
    </g>
</svg>